<svg width="512" height="512" viewBox="0 0 512 512" fill="none" xmlns="http://www.w3.org/2000/svg">
  <!-- Monochrome for Masked Icon -->
  <circle cx="256" cy="256" r="256" fill="black"/>
  <path d="M360 256C360 322.274 306.274 376 240 376C173.726 376 120 322.274 120 256C120 189.726 173.726 136 240 136C247.5 136 254.8 136.7 261.9 138C228 148 200 180 200 220C200 275.228 244.772 320 300 320C325 320 348 308 360 290C360 270 360 256 360 256Z" fill="white"/>
  <circle cx="340" cy="180" r="24" fill="white"/>
  <circle cx="380" cy="130" r="18" fill="white"/>
  <circle cx="290" cy="120" r="12" fill="white"/>
</svg>